<?xml version="1.0" standalone="no"?>
<!DOCTYPE svg PUBLIC "-//W3C//DTD SVG 20010904//EN"
 "http://www.w3.org/TR/2001/REC-SVG-20010904/DTD/svg10.dtd">
<svg version="1.0" xmlns="http://www.w3.org/2000/svg"
 width="500.000000pt" height="200.000000pt" viewBox="0 0 500.000000 200.000000"
 preserveAspectRatio="xMidYMid meet">

<g transform="translate(0.000000,200.000000) scale(0.100000,-0.100000)"
fill="#000000" stroke="none">
<path d="M435 1547 c-3 -6 -4 -201 -3 -432 l3 -420 340 0 340 0 2 325 3 325
-92 108 -91 107 -249 0 c-190 0 -250 -3 -253 -13z m445 -142 l5 -100 93 -3 92
-3 0 -280 0 -279 -292 2 -293 3 -3 370 c-1 203 0 376 3 383 3 10 48 12 197 10
l193 -3 5 -100z m122 -7 l30 -38 -51 0 -51 0 0 57 0 56 21 -19 c12 -10 35 -36
51 -56z"/>
<path d="M552 1388 c3 -22 7 -23 98 -23 91 0 95 1 98 23 3 22 1 22 -98 22 -99
0 -101 0 -98 -22z"/>
<path d="M554 1315 c-3 -8 -3 -22 0 -30 5 -13 25 -15 123 -13 l118 3 0 25 0
25 -118 3 c-98 2 -118 0 -123 -13z"/>
<path d="M806 1178 c-7 -18 -37 -97 -66 -176 -47 -127 -51 -145 -38 -158 13
-14 17 -14 30 -1 19 20 130 323 126 345 -6 32 -37 26 -52 -10z"/>
<path d="M567 1102 c-26 -26 -47 -54 -47 -63 0 -24 106 -123 124 -116 25 10
19 34 -21 77 l-36 41 38 39 c24 25 36 44 32 54 -11 28 -42 17 -90 -32z"/>
<path d="M907 1143 c-15 -15 -5 -41 28 -73 l34 -33 -40 -44 c-33 -36 -38 -47
-29 -59 7 -8 17 -14 22 -14 14 0 118 101 118 114 0 15 -102 116 -116 116 -6 0
-14 -3 -17 -7z"/>
<path d="M3892 1501 c-20 -12 -10 -46 14 -49 25 -4 40 24 23 44 -13 16 -19 17
-37 5z"/>
<path d="M3290 1482 c-29 -13 -32 -16 -15 -20 11 -2 23 -9 27 -16 4 -6 8 -89
8 -184 l0 -173 35 -15 c109 -45 215 24 215 141 0 115 -103 179 -177 112 l-23
-20 0 96 c0 108 -2 110 -70 79z m159 -173 c40 -14 61 -54 61 -118 0 -64 -35
-111 -84 -111 -60 0 -67 14 -64 120 3 89 4 95 28 107 14 7 25 13 26 13 1 0 15
-5 33 -11z"/>
<path d="M1325 1478 c42 -23 45 -36 45 -203 0 -164 -4 -185 -40 -198 -8 -3 23
-6 70 -6 75 -1 82 1 60 12 -24 12 -25 18 -28 105 l-3 92 66 0 c52 0 69 -4 85
-20 l20 -20 0 46 c0 41 -1 44 -16 30 -11 -12 -35 -16 -85 -16 l-69 0 0 85 0
85 79 0 c95 0 128 -11 141 -46 15 -38 22 -24 14 25 l-7 41 -176 0 c-133 -1
-171 -3 -156 -12z"/>
<path d="M2460 1476 c20 -11 39 -52 99 -215 41 -111 78 -198 82 -194 4 5 26
60 49 123 23 63 45 118 49 123 4 4 29 -51 56 -123 27 -71 52 -130 55 -130 4 0
33 75 65 168 66 189 87 237 112 251 14 8 2 10 -47 10 -54 0 -61 -2 -42 -11 12
-6 22 -20 22 -31 0 -27 -81 -257 -90 -257 -8 0 -100 234 -100 254 0 8 10 21
23 29 21 15 17 16 -63 16 -81 1 -83 0 -61 -15 12 -9 31 -36 42 -60 l18 -44
-30 -88 c-17 -48 -34 -90 -38 -94 -3 -4 -28 54 -55 129 l-49 137 23 18 c22 18
21 18 -61 18 -77 -1 -82 -2 -59 -14z"/>
<path d="M4073 1401 c-13 -22 -32 -42 -43 -46 -26 -8 -26 -25 0 -25 19 0 20
-7 20 -107 0 -114 12 -155 44 -161 30 -6 65 7 76 29 10 18 10 19 -9 7 -16 -10
-26 -10 -39 -2 -14 9 -17 29 -20 123 l-3 111 30 0 c16 0 33 5 36 10 4 6 -8 10
-29 10 -34 0 -35 1 -38 45 l-3 45 -22 -39z"/>
<path d="M1735 1341 c-32 -15 -37 -20 -22 -26 15 -6 17 -22 17 -116 0 -104 -1
-110 -22 -119 -17 -6 -5 -9 47 -9 39 1 63 3 55 6 -27 11 -30 26 -29 151 1 68
0 125 -2 127 -3 2 -22 -4 -44 -14z"/>
<path d="M1840 1353 c-20 -8 -50 -34 -50 -45 0 -4 9 -3 20 4 15 10 22 10 32 0
17 -17 45 -15 52 3 3 8 -2 21 -10 30 -16 16 -20 17 -44 8z"/>
<path d="M2000 1347 c-52 -18 -80 -67 -80 -141 0 -94 41 -146 116 -146 37 0
78 25 92 55 19 41 14 49 -12 19 -17 -21 -33 -28 -59 -28 -51 0 -83 34 -101
107 l-6 27 94 0 c52 0 97 4 101 10 9 14 -21 77 -42 88 -34 17 -68 20 -103 9z
m58 -24 c11 -10 23 -28 27 -40 6 -22 4 -23 -59 -23 -59 0 -66 2 -66 19 0 20
44 61 65 61 7 0 22 -8 33 -17z"/>
<path d="M2270 1347 c-52 -18 -80 -67 -80 -141 0 -94 41 -146 116 -146 37 0
78 25 92 55 18 40 14 51 -8 22 -53 -67 -139 -28 -164 76 l-6 27 100 0 c62 0
100 4 100 10 0 34 -32 82 -64 95 -41 17 -41 17 -86 2z m58 -24 c11 -10 23 -28
27 -40 6 -22 4 -23 -59 -23 -59 0 -66 2 -66 19 0 20 44 61 65 61 7 0 22 -8 33
-17z"/>
<path d="M3083 1345 c-48 -21 -73 -68 -73 -140 0 -42 6 -70 20 -93 42 -69 143
-70 183 -2 23 39 21 58 -3 27 -53 -67 -139 -28 -164 76 l-6 27 100 0 c62 0
100 4 100 10 0 34 -32 82 -64 95 -43 18 -52 18 -93 0z m65 -22 c11 -10 23 -28
27 -40 6 -22 4 -23 -59 -23 -59 0 -66 2 -66 19 0 20 44 61 65 61 7 0 22 -8 33
-17z"/>
<path d="M3663 1345 c-20 -8 -35 -23 -38 -38 -13 -48 -2 -71 50 -104 94 -62
107 -88 61 -119 -21 -13 -29 -14 -53 -2 -15 7 -36 29 -45 48 l-18 35 0 -47 0
-47 57 -7 c67 -8 102 7 117 49 16 45 -3 78 -69 118 -32 19 -63 43 -69 52 -17
27 5 52 45 52 27 0 38 -7 56 -34 l23 -34 0 42 c0 39 -2 41 -29 41 -16 0 -35 2
-43 5 -7 2 -27 -2 -45 -10z"/>
<path d="M3881 1340 c-37 -14 -41 -18 -23 -22 21 -6 22 -12 22 -117 0 -94 -3
-111 -17 -120 -14 -8 -2 -10 47 -10 36 1 57 3 48 6 -24 6 -28 27 -31 164 l-2
117 -44 -18z"/>
<path d="M4301 1347 c-89 -31 -116 -174 -48 -253 17 -19 35 -27 70 -31 43 -5
49 -3 82 30 19 19 35 42 35 52 0 12 -6 9 -24 -11 -48 -56 -133 -26 -156 55 -5
20 -10 39 -10 43 0 4 44 9 98 10 96 3 97 3 94 27 -5 35 -30 69 -55 76 -45 13
-53 13 -86 2z m59 -27 c11 -11 20 -29 20 -40 0 -18 -7 -20 -60 -20 -53 0 -60
2 -60 19 0 21 44 61 66 61 8 0 23 -9 34 -20z"/>
<path d="M1910 855 c0 -50 4 -85 10 -85 6 0 10 35 10 85 0 50 -4 85 -10 85 -6
0 -10 -35 -10 -85z"/>
<path d="M1333 923 c27 -4 27 -5 27 -79 0 -43 4 -74 10 -74 6 0 10 31 10 74
l0 75 33 4 c17 2 1 4 -38 4 -38 0 -58 -2 -42 -4z"/>
<path d="M2091 908 c0 -9 -7 -19 -13 -21 -10 -4 -10 -7 -1 -14 6 -5 13 -29 15
-53 3 -42 5 -45 32 -45 16 0 31 6 34 13 3 11 1 11 -17 0 -27 -16 -41 0 -41 50
0 27 4 32 24 32 14 0 28 5 31 10 4 6 -6 10 -24 10 -20 0 -31 6 -34 18 -4 15
-5 15 -6 0z"/>
<path d="M1448 879 c-26 -15 -25 -85 1 -99 28 -15 67 -12 81 5 14 17 0 21 -17
4 -15 -15 -59 -4 -67 16 -4 12 4 15 44 15 42 0 50 3 50 18 0 40 -53 64 -92 41z
m62 -14 c18 -21 9 -27 -36 -23 -36 3 -37 4 -20 21 21 21 40 22 56 2z"/>
<path d="M1567 884 c-11 -11 -8 -114 3 -114 6 0 10 20 10 44 0 88 60 88 71 0
6 -49 6 -49 7 -8 4 92 62 99 73 8 6 -49 6 -49 5 11 -1 55 -3 60 -24 63 -13 2
-29 -2 -37 -8 -10 -8 -19 -8 -34 2 -17 10 -25 10 -40 1 -13 -8 -21 -9 -23 -2
-2 6 -7 7 -11 3z"/>
<path d="M1772 805 c1 -61 3 -77 7 -50 4 26 9 35 14 28 15 -23 65 -15 83 13
34 50 -10 108 -65 87 -22 -8 -31 -8 -35 1 -2 6 -4 -29 -4 -79z m82 62 c39 -28
-1 -107 -41 -81 -32 20 -38 40 -20 68 19 29 35 32 61 13z"/>
<path d="M1962 878 c-19 -19 -14 -33 6 -15 23 21 46 22 62 2 10 -12 10 -16 -1
-19 -68 -18 -74 -22 -74 -46 0 -20 6 -26 29 -28 16 -2 33 1 39 7 8 8 3 10 -20
5 -38 -7 -55 13 -28 33 26 19 69 17 61 -2 -8 -22 4 -45 23 -44 10 0 11 2 4 6
-8 3 -13 22 -13 47 0 23 -5 47 -12 54 -15 15 -61 15 -76 0z"/>
<path d="M2196 874 c-36 -35 -10 -104 39 -104 29 0 55 10 55 20 0 5 -13 3 -29
-3 -25 -9 -33 -8 -51 8 -26 24 -19 30 35 26 39 -2 45 0 45 18 0 27 -26 51 -55
51 -13 0 -31 -7 -39 -16z m62 -6 c21 -21 13 -28 -30 -28 -40 0 -41 0 -23 20
21 23 36 25 53 8z"/>
<path d="M2324 875 c-10 -24 0 -38 36 -50 43 -14 49 -32 15 -41 -18 -4 -32 -1
-45 11 -21 19 -28 7 -8 -13 17 -17 63 -15 78 3 18 22 5 45 -30 51 -35 8 -47
21 -31 37 7 7 18 7 36 -1 14 -6 25 -8 25 -3 0 23 -68 28 -76 6z"/>
</g>
</svg>
