<?xml version="1.0" standalone="no"?>
<!DOCTYPE svg PUBLIC "-//W3C//DTD SVG 20010904//EN"
 "http://www.w3.org/TR/2001/REC-SVG-20010904/DTD/svg10.dtd">
<svg version="1.0" xmlns="http://www.w3.org/2000/svg"
 width="500.000000pt" height="200.000000pt" viewBox="0 0 500.000000 200.000000"
 preserveAspectRatio="xMidYMid meet">

<g transform="translate(0.000000,200.000000) scale(0.100000,-0.100000)"
fill="#000000" stroke="none">
<path d="M435 1547 c-3 -6 -4 -201 -3 -432 l3 -420 339 -3 c265 -2 341 1 348
10 4 7 8 153 8 323 l0 310 -96 113 -96 112 -249 0 c-191 0 -251 -3 -254 -13z
m447 -144 l3 -98 93 -3 92 -3 -2 -275 -3 -275 -288 -2 -287 -2 0 378 0 377
195 0 194 0 3 -97z m101 -41 c-25 -2 -46 -2 -47 0 -2 2 0 25 2 53 l4 50 44
-50 43 -50 -46 -3z"/>
<path d="M552 1403 c-19 -37 -4 -43 98 -43 102 0 117 6 98 43 -7 14 -23 17
-98 17 -75 0 -91 -3 -98 -17z"/>
<path d="M550 1315 c-10 -12 -10 -18 0 -30 10 -12 37 -15 125 -15 88 0 115 3
125 15 10 12 10 18 0 30 -10 12 -37 15 -125 15 -88 0 -115 -3 -125 -15z"/>
<path d="M812 1193 c-5 -10 -35 -89 -67 -176 -54 -147 -57 -159 -42 -175 15
-14 19 -14 31 -2 19 21 135 341 129 357 -7 19 -41 16 -51 -4z"/>
<path d="M561 1095 c-60 -64 -60 -68 19 -134 79 -66 115 -32 43 41 l-37 38 38
39 c25 25 37 45 33 55 -12 29 -44 16 -96 -39z"/>
<path d="M900 1127 c0 -13 15 -38 35 -57 l35 -34 -42 -43 c-35 -36 -39 -44
-28 -58 7 -8 18 -15 24 -15 16 0 119 106 115 118 -2 6 -26 33 -52 61 -52 55
-87 67 -87 28z"/>
<path d="M3300 1487 c-36 -16 -41 -21 -25 -25 11 -2 23 -9 27 -16 4 -6 8 -89
8 -183 l0 -172 30 -16 c68 -35 159 -9 201 57 16 26 19 46 17 96 -4 55 -8 67
-36 95 -41 41 -98 44 -136 8 l-26 -24 0 96 c0 53 -3 98 -7 100 -5 3 -28 -5
-53 -16z m185 -209 c24 -29 27 -38 23 -92 -4 -49 -9 -63 -32 -83 -29 -25 -65
-29 -97 -13 -17 9 -19 22 -19 105 0 104 6 114 67 115 23 0 38 -8 58 -32z"/>
<path d="M3882 1493 c-13 -26 -4 -43 24 -43 29 0 41 24 24 45 -17 20 -37 19
-48 -2z"/>
<path d="M1333 1474 l27 -15 -2 -186 -3 -187 -25 -7 c-32 -9 -23 -11 78 -12
45 -1 82 1 82 6 0 4 -8 7 -18 7 -34 0 -42 21 -42 112 l0 88 54 0 c69 0 101
-12 111 -42 7 -20 9 -19 12 15 2 20 3 54 1 75 l-3 37 -15 -30 c-15 -29 -18
-30 -88 -33 l-72 -3 0 86 0 85 74 0 c90 0 129 -13 147 -48 l13 -27 4 24 c2 12
1 34 -2 47 l-6 24 -178 0 c-163 -1 -175 -2 -149 -16z"/>
<path d="M2457 1478 c24 -12 37 -39 118 -260 31 -87 60 -158 64 -158 3 0 26
55 50 123 24 67 47 125 50 129 4 4 28 -51 55 -122 27 -72 52 -130 56 -130 4 0
36 80 70 178 72 205 75 211 104 234 20 17 19 18 -44 17 -54 0 -61 -2 -42 -11
12 -6 22 -18 22 -27 0 -21 -83 -261 -90 -261 -3 0 -28 59 -55 131 l-49 131 24
19 25 19 -85 0 c-85 0 -85 0 -61 -19 14 -10 32 -38 42 -62 18 -47 17 -48 -47
-219 -3 -8 -28 48 -55 125 l-50 139 23 18 c23 17 21 18 -62 17 -67 0 -80 -3
-63 -11z"/>
<path d="M4087 1423 c-4 -12 -23 -35 -42 -52 -40 -35 -42 -41 -15 -41 19 0 20
-7 20 -113 0 -86 4 -118 16 -135 18 -26 59 -29 92 -6 30 21 28 36 -4 22 -43
-20 -54 7 -54 129 l0 103 35 0 c19 0 35 5 35 10 0 6 -16 10 -34 10 -34 0 -35
1 -38 48 -2 37 -5 42 -11 25z"/>
<path d="M1728 1343 c-41 -17 -50 -33 -18 -33 19 0 20 -7 20 -99 0 -110 -4
-131 -29 -131 -14 -1 -14 -2 -1 -9 18 -9 116 -8 126 2 4 4 -2 7 -13 7 -28 0
-33 17 -33 116 0 71 3 87 20 104 16 16 25 18 40 10 27 -15 50 -12 57 6 6 17
-20 44 -43 44 -7 0 -26 -12 -43 -26 l-31 -26 0 26 c0 29 -1 30 -52 9z"/>
<path d="M1993 1345 c-87 -38 -106 -184 -33 -257 23 -22 37 -28 73 -28 37 0
51 6 76 31 17 17 31 34 31 39 0 5 3 17 6 27 4 10 -6 3 -22 -15 -60 -69 -164
-23 -164 73 l0 25 95 0 c79 0 95 3 95 15 0 32 -32 77 -65 91 -42 17 -51 17
-92 -1z m65 -21 c12 -8 22 -26 22 -40 0 -23 -3 -24 -60 -24 -69 0 -77 14 -35
55 28 29 42 31 73 9z"/>
<path d="M2264 1346 c-89 -39 -109 -197 -32 -261 44 -37 106 -35 147 6 17 17
31 34 31 39 0 5 3 17 6 27 3 10 -6 3 -21 -14 -43 -53 -118 -44 -150 17 -8 16
-15 40 -15 55 l0 25 95 0 c105 0 109 3 80 60 -16 31 -61 60 -92 60 -10 -1 -32
-7 -49 -14z m64 -22 c12 -8 22 -26 22 -40 0 -23 -3 -24 -60 -24 -69 0 -77 14
-35 55 28 29 42 31 73 9z"/>
<path d="M3083 1345 c-87 -38 -106 -184 -33 -257 22 -22 38 -28 70 -28 63 0
96 26 114 90 7 23 5 22 -19 -7 -43 -53 -118 -44 -150 17 -8 16 -15 40 -15 55
l0 25 95 0 c105 0 109 3 80 60 -16 31 -61 60 -92 60 -10 -1 -33 -7 -50 -15z
m67 -25 c11 -11 20 -29 20 -40 0 -18 -7 -20 -60 -20 -69 0 -77 14 -35 55 29
30 49 31 75 5z"/>
<path d="M3665 1351 c-34 -14 -46 -37 -43 -78 3 -33 9 -42 62 -78 32 -22 64
-48 70 -57 24 -39 -36 -74 -84 -48 -11 6 -27 25 -34 43 l-14 32 -1 -46 c-1
-44 0 -47 30 -53 94 -19 149 9 149 74 0 42 -12 55 -102 111 -48 29 -60 53 -36
77 31 31 85 7 107 -48 9 -22 10 -19 10 23 1 40 -2 47 -18 47 -10 0 -31 2 -47
5 -16 2 -38 1 -49 -4z"/>
<path d="M3880 1342 c-41 -14 -43 -16 -22 -25 21 -10 22 -16 22 -119 0 -103
-1 -109 -22 -118 -13 -5 -18 -9 -13 -10 109 -12 140 -8 108 15 -15 11 -19 33
-23 143 l-5 129 -45 -15z"/>
<path d="M4283 1340 c-41 -24 -60 -55 -68 -105 -16 -96 39 -175 118 -175 48 0
77 20 101 68 20 38 12 42 -16 7 -14 -18 -29 -25 -54 -25 -60 0 -90 29 -108
103 l-6 27 100 0 c62 0 100 4 100 10 0 34 -32 82 -64 95 -47 20 -65 19 -103
-5z m85 -28 c6 -9 12 -24 12 -34 0 -15 -9 -18 -60 -18 -53 0 -60 2 -60 19 0
11 12 29 27 40 28 23 59 20 81 -7z"/>
<path d="M1330 929 l-25 -7 28 -1 c27 -1 27 -1 27 -76 0 -43 4 -75 10 -75 6 0
10 32 10 75 l0 75 32 0 c17 0 29 3 25 6 -9 9 -80 12 -107 3z"/>
<path d="M1910 855 c0 -50 4 -85 10 -85 6 0 10 35 10 85 0 50 -4 85 -10 85 -6
0 -10 -35 -10 -85z"/>
<path d="M2090 911 c0 -12 -7 -21 -15 -21 -8 0 -15 -4 -15 -10 0 -5 7 -10 14
-10 11 0 16 -14 18 -47 3 -43 6 -48 29 -51 14 -2 31 4 39 12 14 18 0 22 -17 5
-19 -19 -33 0 -33 42 0 35 3 39 25 39 14 0 25 5 25 10 0 6 -11 10 -25 10 -15
0 -25 6 -25 14 0 8 -4 18 -10 21 -5 3 -10 -3 -10 -14z"/>
<path d="M1440 874 c-8 -8 -13 -28 -13 -44 0 -39 19 -60 57 -60 34 0 64 15 53
26 -3 4 -13 1 -22 -6 -18 -15 -61 -6 -69 15 -4 12 4 15 44 15 42 0 50 3 50 18
0 43 -73 70 -100 36z m61 -4 c31 -17 22 -30 -23 -30 -40 0 -41 0 -23 20 21 23
20 23 46 10z"/>
<path d="M1560 829 c0 -33 4 -59 10 -59 6 0 10 18 10 39 0 37 19 71 40 71 16
0 28 -34 25 -72 -2 -21 1 -38 6 -38 5 0 9 18 9 39 0 36 19 71 39 71 18 0 31
-28 31 -67 0 -24 3 -43 8 -43 4 0 5 26 2 58 l-5 57 -87 1 -88 2 0 -59z"/>
<path d="M1770 806 c0 -82 7 -114 12 -54 2 24 5 26 35 21 60 -10 93 44 57 95
-16 24 -67 31 -80 11 -4 -8 -9 -7 -15 2 -5 9 -9 -22 -9 -75z m81 64 c30 -17
26 -67 -7 -82 -23 -11 -29 -10 -45 11 -24 29 -24 36 1 61 23 23 25 23 51 10z"/>
<path d="M1962 878 c-21 -21 -13 -29 12 -13 25 17 56 11 56 -11 0 -8 -10 -14
-24 -14 -13 0 -34 -8 -47 -19 -38 -30 -12 -50 63 -49 42 1 55 4 44 10 -10 6
-16 22 -16 46 0 21 -5 43 -12 50 -15 15 -61 15 -76 0z m68 -62 c0 -19 -26 -38
-47 -34 -27 5 -22 31 7 39 37 10 40 10 40 -5z"/>
<path d="M2196 874 c-21 -20 -20 -68 0 -89 19 -18 85 -17 91 2 3 9 -3 9 -26 0
-23 -8 -33 -8 -45 2 -27 22 -18 31 29 31 38 0 45 3 45 19 0 27 -26 51 -55 51
-13 0 -31 -7 -39 -16z m74 -24 c0 -6 -16 -10 -35 -10 -38 0 -46 13 -18 29 19
10 53 -2 53 -19z"/>
<path d="M2322 873 c-14 -27 -4 -42 34 -49 25 -5 34 -11 32 -23 -5 -23 -36
-26 -59 -5 -10 9 -19 12 -19 7 0 -20 29 -34 62 -31 28 2 33 7 33 28 0 20 -7
27 -35 36 -19 6 -36 16 -37 21 -6 16 28 25 44 12 15 -13 28 -6 18 10 -10 18
-63 13 -73 -6z"/>
</g>
</svg>
